# xmcd CD database file
#
# Track frame offsets:
#	150
#	22237
#	45872
#	64251
#	85345
#	108638
#	124567
#	145112
#	170360
#	192513
#
# Disc length: 2911 seconds
#
# Revision: 3
# Processed by: cddbd v1.5PL3 Copyright (c) Steve Scherf et al.
# Submitted via: jetAudio 5
#
DISCID=880b5d0a
DTITLE=HQ Band - South
DYEAR=1900
DGENRE=
TTITLE0=Marigot
TTITLE1=Celina
TTITLE2=Cause of it all
TTITLE3=Long Cold Night
TTITLE4=She's A Woman
TTITLE5=Fireball
TTITLE6=Louise
TTITLE7=Satisfied
TTITLE8=Image-Free
TTITLE9=The Last Time
EXTD=Hector Qirko Band
EXTT0=Hector Qirko Band
EXTT1=Hector Qirko Band
EXTT2=Hector Qirko Band
EXTT3=Hector Qirko Band
EXTT4=Hector Qirko Band
EXTT5=Hector Qirko Band
EXTT6=Hector Qirko Band
EXTT7=Hector Qirko Band
EXTT8=Hector Qirko Band
EXTT9=Hector Qirko Band
PLAYORDER=
